<svg width="32" height="32" viewBox="0 0 32 32" fill="none" xmlns="http://www.w3.org/2000/svg">
<path d="M2.66675 26.6668H29.3334M26.6667 15.2696V26.6669L18.6667 26.6668V21.3334C18.6667 19.8607 17.4728 18.6668 16.0001 18.6668C14.5273 18.6668 13.3334 19.8607 13.3334 21.3334V26.6668H5.33341V15.2696C5.33341 14.5572 5.33341 14.2009 5.42004 13.8694C5.49681 13.5756 5.62315 13.297 5.7937 13.0458C5.98615 12.7623 6.25427 12.5278 6.79045 12.0586L13.1904 6.4586C14.1859 5.58755 14.6834 5.15208 15.2436 4.98643C15.7372 4.84046 16.263 4.84046 16.7566 4.98643C17.3168 5.15208 17.8145 5.58755 18.81 6.4586L25.21 12.0586C25.7461 12.5277 26.014 12.7623 26.2064 13.0458C26.377 13.297 26.5034 13.5756 26.5802 13.8694C26.6668 14.2009 26.6667 14.5572 26.6667 15.2696Z" stroke="white" stroke-width="2" stroke-linecap="round" stroke-linejoin="round"/>
</svg>
